<?xml version="1.0" encoding="iso-8859-1"?>
<!-- Generator: Adobe Illustrator 18.0.0, SVG Export Plug-In . SVG Version: 6.00 Build 0)  -->
<!DOCTYPE svg PUBLIC "-//W3C//DTD SVG 1.1//EN" "http://www.w3.org/Graphics/SVG/1.1/DTD/svg11.dtd">
<svg version="1.1" id="_x30_" xmlns="http://www.w3.org/2000/svg" xmlns:xlink="http://www.w3.org/1999/xlink" x="0px" y="0px"
	 viewBox="0 0 512 512" style="enable-background:new 0 0 512 512;" xml:space="preserve">
<g>
	<rect style="opacity:0;fill:#FFFFFF;" width="512" height="512"/>
	<polygon style="opacity:0.1;fill:#231815;" points="512,210.075 512,512 183.345,512 89.908,418.56 247.55,260.915 
		405.195,103.275 	"/>
	<g>
		<path style="fill:#93B793;" d="M405.18,111.785c-90.74-40.845-193.45-30.05-259.475,35.98
			c-63.553,63.55-75.915,161.07-40.343,249.19c-6.148,6.04-11.81,11.64-16.762,16.596c-4.095,4.095,0,0,0,0l14.815,14.815
			c1.36-1.36,0,0,0,0c4.953-4.955,10.553-10.615,16.593-16.765c88.117,35.575,185.637,23.21,249.187-40.34
			C435.225,305.23,446.025,202.52,405.18,111.785z"/>
		<path style="fill:#6DB96D;" d="M95.02,436.76C94.485,437.295,94.287,437.49,95.02,436.76L95.02,436.76z"/>
		<path style="fill:#6DB96D;" d="M97.625,434.155c-0.565,0.565-1.008,1.005-1.4,1.4C96.948,434.835,97.625,434.155,97.625,434.155z"
			/>
		<path style="fill:#6DB96D;" d="M95.793,435.985c-0.275,0.275-0.535,0.535-0.748,0.75C95.23,436.55,95.49,436.29,95.793,435.985z"
			/>
	</g>
	<g>
		<g>
			<path style="fill:#8AC887;" d="M145.705,139.23c-66.035,66.03-76.83,168.74-35.98,259.475L405.18,103.25
				C314.44,62.405,211.73,73.2,145.705,139.23z"/>
			<path style="fill:#78C175;" d="M369.195,362.725c-66.03,66.03-168.74,76.83-259.47,35.98L405.18,103.25
				C446.025,193.985,435.225,296.695,369.195,362.725z"/>
		</g>
		<path style="fill:#6DB96D;" d="M97.625,425.62c2.215-1.39,2.215-1.39,5.79-5.79c71.115-71.12,264.985-276.845,271.41-286.225
			c-9.385,6.42-215.11,200.295-286.225,271.41c-4.095,4.095-5.79,5.785-5.79,5.785L97.625,425.62z"/>
		<path style="fill:#6DB96D;" d="M269.52,244.5c0,0,0,0,0-6.51c0-29.285-5.615-111.565-7.01-114.815
			c-1.405,3.25-7.015,85.53-7.015,114.815c-0.005,6.51-0.005,6.51-0.005,6.51H269.52z"/>
		<path style="fill:#6DB96D;" d="M195.02,319c0,0,0,0,0-6.51c0-29.285-5.615-111.565-7.015-114.815
			c-1.405,3.25-7.015,85.535-7.015,114.815c0,6.51,0,6.51,0,6.51H195.02z"/>
		<path style="fill:#6DB96D;" d="M265.175,240.155c0,0,0,0,6.51,0c29.285,0,111.565,5.61,114.815,7.015
			c-3.25,1.405-85.53,7.015-114.815,7.015c-6.51,0-6.51,0-6.51,0V240.155z"/>
		<path style="fill:#6DB96D;" d="M190.675,314.655c0,0,0,0,6.51,0c29.28,0,111.565,5.615,114.815,7.015
			c-3.25,1.406-85.535,7.016-114.815,7.016c-6.51,0.005-6.51,0.005-6.51,0.005V314.655z"/>
	</g>
</g>
</svg>
