<svg width="96" height="96" viewBox="0 0 96 96" xmlns="http://www.w3.org/2000/svg">
<rect width="96" height="96" fill="#E7EEF9"/>
<path d="M70.2857 47.5714H66.8571C65.9143 47.5714 65.1429 48.3429 65.1429 49.2857V59.5714C65.1429 60.5143 64.3714 61.2857 63.4286 61.2857H32.5714C31.6286 61.2857 30.8571 60.5143 30.8571 59.5714V35.5714C30.8571 34.6286 31.6286 33.8571 32.5714 33.8571H63.4286C64.3714 33.8571 65.1429 33.0857 65.1429 32.1429V28.7143C65.1429 27.7714 64.3714 27 63.4286 27H26.5714C25.1486 27 24 28.1486 24 29.5714V65.5714C24 66.9943 25.1486 68.1429 26.5714 68.1429H69.4286C70.8514 68.1429 72 66.9943 72 65.5714V49.2857C72 48.3429 71.2286 47.5714 70.2857 47.5714Z"/>
<path d="M44.7821 49.7886L42.3577 47.3643C41.6882 46.6948 40.6028 46.6948 39.9333 47.3643L37.509 49.7886C36.8395 50.4581 36.8395 51.5435 37.509 52.213L39.9333 54.6374C40.6028 55.3069 41.6882 55.3069 42.3577 54.6374L44.7821 52.213C45.4515 51.5435 45.4515 50.4581 44.7821 49.7886Z"/>
<path d="M56.5716 47.5713H53.143C52.1962 47.5713 51.4287 48.3388 51.4287 49.2856V52.7141C51.4287 53.6609 52.1962 54.4284 53.143 54.4284H56.5716C57.5183 54.4284 58.2859 53.6609 58.2859 52.7141V49.2856C58.2859 48.3388 57.5183 47.5713 56.5716 47.5713Z"/>
<path d="M48.4287 44.5714C47.9572 44.5714 47.5715 44.1856 47.5715 43.7142V41.1428C47.5715 40.6714 47.9572 40.2856 48.4287 40.2856H49.7144V37.2856H46.2858C45.343 37.2856 44.5715 38.0571 44.5715 38.9999V45.8571C44.5715 46.7999 45.343 47.5714 46.2858 47.5714H49.7144V44.5714H48.4287Z"/>
<path d="M63.4286 37.2856H60V40.2856H61.2857C61.7571 40.2856 62.1429 40.6714 62.1429 41.1428V43.7142C62.1429 44.1856 61.7571 44.5714 61.2857 44.5714H60V47.5714H63.4286C64.3714 47.5714 65.1429 46.7999 65.1429 45.8571V38.9999C65.1429 38.0571 64.3714 37.2856 63.4286 37.2856Z"/>
</svg>
