<svg width="96" height="96" viewBox="0 0 96 96" xmlns="http://www.w3.org/2000/svg">
<rect width="96" height="96" fill="#D8F8DF"/>
<path d="M70.2857 47.5714H66.8571C65.9143 47.5714 65.1429 48.3429 65.1429 49.2857V59.5714C65.1429 60.5143 64.3714 61.2857 63.4286 61.2857H32.5714C31.6286 61.2857 30.8571 60.5143 30.8571 59.5714V35.5714C30.8571 34.6286 31.6286 33.8571 32.5714 33.8571H63.4286C64.3714 33.8571 65.1429 33.0857 65.1429 32.1429V28.7143C65.1429 27.7714 64.3714 27 63.4286 27H26.5714C25.1486 27 24 28.1486 24 29.5714V65.5714C24 66.9943 25.1486 68.1429 26.5714 68.1429H69.4286C70.8514 68.1429 72 66.9943 72 65.5714V49.2857C72 48.3429 71.2286 47.5714 70.2857 47.5714Z"/>
<path d="M57.883 46.7571L51.1715 49.5C50.803 49.68 50.5715 50.0571 50.5715 50.46C50.5715 50.8714 50.803 51.24 51.1715 51.42L57.8915 54.1628C58.063 54.1971 58.243 54.18 58.4058 54.1285C58.6201 54.06 58.8087 53.9228 58.9372 53.7342C59.1772 53.4085 59.2115 52.9714 59.0144 52.6114C58.2944 52.1657 57.8144 51.3685 57.8144 50.46C57.8144 49.5514 58.2858 48.7714 58.9972 48.3171L59.0058 48.3085C59.1944 47.9485 59.1601 47.5114 58.9201 47.1771C58.6801 46.8514 58.2772 46.68 57.8744 46.7571H57.883Z"/>
<path d="M44.4858 52.5941L39.0087 47.117C38.4687 46.577 37.543 46.9627 37.543 47.7256V53.2027C37.543 53.6741 37.9287 54.0599 38.4001 54.0599H43.8773C44.6401 54.0599 45.0258 53.1341 44.4858 52.5941Z"/>
<path d="M49.9286 42.4285H46.0629C45.1201 42.4285 44.3486 43.1999 44.3486 44.1428C44.3486 45.0856 45.1201 45.857 46.0629 45.857H49.9286C50.8715 45.857 51.6429 45.0856 51.6429 44.1428C51.6429 43.1999 50.8715 42.4285 49.9286 42.4285Z"/>
<path d="M63.643 42.4285H59.7773C58.8344 42.4285 58.063 43.1999 58.063 44.1428C58.063 45.0856 58.8344 45.857 59.7773 45.857H63.643C64.5858 45.857 65.3573 45.0856 65.3573 44.1428C65.3573 43.1999 64.5858 42.4285 63.643 42.4285Z"/>
</svg>
