<svg width="96" height="96" viewBox="0 0 96 96" xmlns="http://www.w3.org/2000/svg">
<rect width="96" height="96" fill="#EFEDF3"/>
<path d="M70.2857 47.5714H66.8571C65.9143 47.5714 65.1429 48.3429 65.1429 49.2857V59.5714C65.1429 60.5143 64.3714 61.2857 63.4286 61.2857H32.5714C31.6286 61.2857 30.8571 60.5143 30.8571 59.5714V35.5714C30.8571 34.6286 31.6286 33.8571 32.5714 33.8571H63.4286C64.3714 33.8571 65.1429 33.0857 65.1429 32.1429V28.7143C65.1429 27.7714 64.3714 27 63.4286 27H26.5714C25.1486 27 24 28.1486 24 29.5714V65.5714C24 66.9943 25.1486 68.1429 26.5714 68.1429H69.4286C70.8514 68.1429 72 66.9943 72 65.5714V49.2857C72 48.3429 71.2286 47.5714 70.2857 47.5714Z"/>
<path d="M45.3515 40.4999C47.3658 40.4999 48.9943 42.1285 48.9943 44.1428C48.9943 46.157 47.3658 47.7856 45.3515 47.7856C43.3372 47.7856 41.7086 46.157 41.7086 44.1428C41.7086 42.1285 43.3372 40.4999 45.3515 40.4999ZM45.3515 37.9285C41.9229 37.9285 39.1372 40.7142 39.1372 44.1428C39.1372 47.5713 41.9229 50.357 45.3515 50.357C48.7801 50.357 51.5658 47.5713 51.5658 44.1428C51.5658 40.7142 48.7801 37.9285 45.3515 37.9285Z"/>
<path d="M59.2201 40.4999C61.2344 40.4999 62.863 42.1285 62.863 44.1428C62.863 46.157 61.2344 47.7856 59.2201 47.7856C57.2059 47.7856 55.5773 46.157 55.5773 44.1428C55.5773 42.1285 57.2059 40.4999 59.2201 40.4999ZM59.2201 37.9285C55.7916 37.9285 53.0059 40.7142 53.0059 44.1428C53.0059 47.5713 55.7916 50.357 59.2201 50.357C62.6487 50.357 65.4344 47.5713 65.4344 44.1428C65.4344 40.7142 62.6487 37.9285 59.2201 37.9285Z"/>
<path d="M47.0657 51.6084H43.6371C42.6904 51.6084 41.9229 52.3759 41.9229 53.3227C41.9229 54.2695 42.6904 55.037 43.6371 55.037H47.0657C48.0125 55.037 48.78 54.2695 48.78 53.3227C48.78 52.3759 48.0125 51.6084 47.0657 51.6084Z"/>
<path d="M59.0059 51.6084H55.5773C54.6305 51.6084 53.863 52.3759 53.863 53.3227C53.863 54.2695 54.6305 55.037 55.5773 55.037H59.0059C59.9527 55.037 60.7202 54.2695 60.7202 53.3227C60.7202 52.3759 59.9527 51.6084 59.0059 51.6084Z"/>
</svg>
